solid rectangle_40x100x3_mm
  facet normal 1.000000 0.000000 0.000000
    outer loop
      vertex 40.000000 0.000000 0.000000
      vertex 40.000000 100.000000 0.000000
      vertex 40.000000 100.000000 2.000000
    endloop
  endfacet
  facet normal 1.000000 0.000000 0.000000
    outer loop
      vertex 40.000000 0.000000 0.000000
      vertex 40.000000 100.000000 2.000000
      vertex 40.000000 0.000000 2.000000
    endloop
  endfacet
  facet normal -1.000000 0.000000 0.000000
    outer loop
      vertex 0.000000 0.000000 0.000000
      vertex 0.000000 0.000000 2.000000
      vertex 0.000000 100.000000 2.000000
    endloop
  endfacet
  facet normal -1.000000 0.000000 0.000000
    outer loop
      vertex 0.000000 0.000000 0.000000
      vertex 0.000000 100.000000 2.000000
      vertex 0.000000 100.000000 0.000000
    endloop
  endfacet
  facet normal 0.000000 1.000000 0.000000
    outer loop
      vertex 0.000000 100.000000 0.000000
      vertex 0.000000 100.000000 2.000000
      vertex 40.000000 100.000000 2.000000
    endloop
  endfacet
  facet normal 0.000000 1.000000 0.000000
    outer loop
      vertex 0.000000 100.000000 0.000000
      vertex 40.000000 100.000000 2.000000
      vertex 40.000000 100.000000 0.000000
    endloop
  endfacet
  facet normal 0.000000 -1.000000 0.000000
    outer loop
      vertex 0.000000 0.000000 0.000000
      vertex 40.000000 0.000000 0.000000
      vertex 40.000000 0.000000 2.000000
    endloop
  endfacet
  facet normal 0.000000 -1.000000 0.000000
    outer loop
      vertex 0.000000 0.000000 0.000000
      vertex 40.000000 0.000000 2.000000
      vertex 0.000000 0.000000 2.000000
    endloop
  endfacet
  facet normal 0.000000 0.000000 1.000000
    outer loop
      vertex 0.000000 0.000000 2.000000
      vertex 40.000000 0.000000 2.000000
      vertex 40.000000 100.000000 2.000000
    endloop
  endfacet
  facet normal 0.000000 0.000000 1.000000
    outer loop
      vertex 0.000000 0.000000 2.000000
      vertex 40.000000 100.000000 2.000000
      vertex 0.000000 100.000000 2.000000
    endloop
  endfacet
  facet normal 0.000000 0.000000 -1.000000
    outer loop
      vertex 0.000000 0.000000 0.000000
      vertex 0.000000 100.000000 0.000000
      vertex 40.000000 100.000000 0.000000
    endloop
  endfacet
  facet normal 0.000000 0.000000 -1.000000
    outer loop
      vertex 0.000000 0.000000 0.000000
      vertex 40.000000 100.000000 0.000000
      vertex 40.000000 0.000000 0.000000
    endloop
  endfacet
endsolid rectangle_40x100x3_mm
